<?xml version="1.0" encoding="utf-8"?>
<!-- Generator: Adobe Illustrator 24.3.0, SVG Export Plug-In . SVG Version: 6.00 Build 0)  -->
<svg version="1.1" id="Layer_1" xmlns="http://www.w3.org/2000/svg" xmlns:xlink="http://www.w3.org/1999/xlink" x="0px" y="0px"
	 viewBox="0 0 259.8 81.3" style="enable-background:new 0 0 259.8 81.3;" xml:space="preserve">
<style type="text/css">
	.st0{fill-rule:evenodd;clip-rule:evenodd;fill:#EB6320;}
	.st1{fill-rule:evenodd;clip-rule:evenodd;fill:#F48810;}
	.st2{fill-rule:evenodd;clip-rule:evenodd;fill:#F8B002;}
	.st3{clip-path:url(#SVGID_1_);}
</style>
<g>
	<g>
		<path class="st0" d="M60.7,40.4c-2.5,3-6.9,3.4-9.9,1c-0.9-0.7-1.5-1.6-1.9-2.5c-0.3-0.8-0.8-1.4-1.5-2c-2.2-1.8-5.3-1.6-7.2,0.4
			c-6.1,6.5-16.3,7.2-23.3,1.5c-4.7-3.9-6.8-9.7-6-15.3c-2.5,6.9-0.6,14.9,5.4,19.9c2.6,2.1,5.7,3.4,8.8,3.9
			c-3.7,0.2-7.4-0.4-10.8-1.8c0.2,0.2,0.5,0.4,0.8,0.7c6.5,5.3,14.8,7,22.4,5.2c-4.2,1.8-8.9,2.4-13.4,1.8
			c7.3,3.7,15.9,3.7,23.2,0.2c-11.8,7.4-27.4,6.8-38.7-2.5c-2.7-2.2-5-4.8-6.8-7.6C3.5,49,7,54.3,12,58.4
			c14.1,11.6,35.1,9.6,46.8-4.6c7.9-9.5,9.6-22.2,5.5-32.9c-0.7-1.9-0.4-4.1,1-5.8c0.3-0.4,0.6-0.7,1-1c0,0,0-0.1-0.1-0.1
			c-1,0.5-1.9,1.2-2.7,2.1c-1,1.2-1.6,2.7-1.7,4.1c-0.8,0.4-1.5,1-2.1,1.7c-1.7,2-1.9,4.8-0.8,7c0.9,1.8,0.9,4-0.2,5.8
			c-0.1,0.1-0.1,0.2-0.2,0.3c0,0.1-0.1,0.1-0.1,0.2c-1.1,1.3-3,1.5-4.3,0.4c-0.5-0.4-0.8-1-1-1.6c-0.2,1.1,0.1,2.2,1.1,3
			c1.1,0.9,2.5,0.9,3.6,0.2c0.4-0.3,0.8-0.7,1.1-1.1c1.2-1.5,1.7-3.3,1.5-5.1C62.8,33.6,63,37.7,60.7,40.4z"/>
		<path class="st1" d="M12.8,51.3C0.9,40.5-0.6,22.2,9.8,9.6c0.5-0.6,1-1.1,1.5-1.7c-1.3,1.2-2.5,2.4-3.7,3.8
			c-6.6,8-8.8,18.1-7,27.4c1.9,3.3,4.5,6.3,7.6,8.9C9.7,49.3,11.2,50.4,12.8,51.3z"/>
		<path class="st2" d="M4.8,33C4.5,25.1,7,17.2,12.4,10.6C16.6,5.4,22.2,1.9,28.2,0c-5.8,0.9-11.4,3.3-16.1,7.3
			C5.9,14.7,3.5,24.1,4.8,33z"/>
	</g>
	<path d="M1.6,66.7c0.1-0.4,0.2-0.9,0.4-1.3s0.4-0.8,0.7-1.1c0.5-0.7,1.1-1.4,1.8-1.9c0.7-0.6,1.4-1.1,2.2-1.5
		c0.4-0.2,0.8-0.4,1.2-0.5c0.1,0,0.2-0.1,0.3-0.1c0.1,0,0.2-0.1,0.3-0.1c0.1,0,0.2-0.1,0.3-0.1l0.3-0.1l0.2,0c0.1,0,0.1,0,0.2,0
		l0.3,0l0.1,0l0.1,0l0.2,0c0.1,0,0.2,0,0.3,0l0.3,0c0.1,0,0.2,0,0.3,0c0.2,0,0.5,0,0.7,0c0.9,0.1,1.8,0.2,2.7,0.4
		c0.9,0.2,1.7,0.5,2.6,0.8c0.8,0.3,1.7,0.6,2.5,1c1.6,0.7,3.2,1.5,4.9,2.1c0.2,0.1,0.4,0.2,0.6,0.2c0.2,0.1,0.4,0.1,0.6,0.2l0.3,0.1
		l0.2,0.1c0.1,0,0.1,0,0.2,0l0.6,0.2l0.2,0l0.2,0l0.3,0.1l0.3,0.1l0.2,0l0.2,0l0.6,0.1l0.2,0l0.2,0l0.3,0.1l0.3,0.1l0.2,0l0.2,0
		l0.6,0.1l0.2,0l0.2,0l0.3,0l0.3,0c0.1,0,0.1,0,0.2,0l0.2,0l0.6,0c0.1,0,0.1,0,0.2,0h0.2l0.3,0h0.3c0.1,0,0.1,0,0.2,0l0.2,0l0.6,0
		c0.9-0.1,1.7-0.1,2.6-0.3c0.4-0.1,0.8-0.2,1.3-0.2c0.1,0,0.2,0,0.3-0.1l0.3-0.1c0.2-0.1,0.4-0.1,0.6-0.2l0.6-0.2
		c0.1,0,0.2-0.1,0.3-0.1l0.3-0.1c0.2-0.1,0.4-0.1,0.6-0.2l0.3-0.1c0.1,0,0.2-0.1,0.3-0.1c0.8-0.3,1.6-0.7,2.3-1.1
		c1.5-0.8,2.9-1.7,4.3-2.8c1.4-1.1,2.6-2.2,3.8-3.5c1.2-1.2,2.3-2.5,3.4-3.9c1.1-1.4,2.1-2.8,3.1-4.2c1-1.4,2-2.9,3-4.4
		c2-2.9,4-5.9,6.2-8.8l2.8,2.3c-2.2,2.6-4.3,5.5-6.4,8.3c-2.1,2.9-4.2,5.7-6.6,8.5c-1.2,1.4-2.4,2.7-3.8,3.9
		c-1.3,1.2-2.7,2.4-4.2,3.5c-1.5,1.1-3.1,2-4.7,2.8c-0.8,0.4-1.7,0.8-2.5,1.1c-0.1,0-0.2,0.1-0.3,0.1l-0.3,0.1
		c-0.2,0.1-0.4,0.1-0.7,0.2l-0.3,0.1c-0.1,0-0.2,0.1-0.3,0.1l-0.7,0.2c-0.2,0.1-0.4,0.1-0.7,0.1L39.3,67c-0.1,0-0.2,0-0.3,0.1
		c-0.5,0.1-0.9,0.2-1.4,0.2c-0.9,0.1-1.8,0.2-2.7,0.2l-0.7,0l-0.2,0c-0.1,0-0.1,0-0.2,0l-0.3,0l-0.3,0l-0.2,0c-0.1,0-0.1,0-0.2,0
		l-0.7-0.1l-0.2,0c-0.1,0-0.1,0-0.2,0l-0.3,0L31,67.2l-0.2,0l-0.7-0.1l-0.2,0l-0.2,0L29.4,67l-0.3-0.1l-0.2,0l-0.2,0l-0.7-0.2
		l-0.2,0l-0.2,0l-0.7-0.2l-0.2,0l-0.2-0.1l-0.6-0.2c-0.1,0-0.1,0-0.2-0.1l-0.2-0.1l-0.3-0.1c-0.2-0.1-0.4-0.2-0.6-0.3
		c-0.2-0.1-0.4-0.2-0.6-0.3c-1.7-0.7-3.2-1.6-4.8-2.3c-0.8-0.4-1.6-0.8-2.4-1.1c-0.8-0.3-1.6-0.6-2.5-0.9c-0.8-0.2-1.7-0.4-2.6-0.5
		c-0.2,0-0.4,0-0.6-0.1c-0.1,0-0.2,0-0.3,0l-0.3,0c-0.1,0-0.2,0-0.3,0l-0.2,0l-0.1,0l-0.1,0l-0.3,0c-0.1,0-0.1,0-0.2,0l-0.2,0
		l-0.3,0c-0.1,0-0.2,0-0.3,0.1c-0.1,0-0.2,0-0.3,0.1c-0.1,0-0.2,0.1-0.3,0.1c-0.4,0.1-0.8,0.3-1.2,0.5c-0.8,0.4-1.5,0.8-2.2,1.3
		c-0.7,0.5-1.3,1.1-1.9,1.8c-0.3,0.3-0.5,0.7-0.7,1.1C1.9,65.9,1.7,66.3,1.6,66.7"/>
	<g>
		<defs>
			<rect id="SVGID_3_" x="64.2" y="28.9" width="10.6" height="13"/>
		</defs>
		<clipPath id="SVGID_1_">
			<use xlink:href="#SVGID_3_"  style="overflow:visible;"/>
		</clipPath>
		<polygon class="st3" points="74.8,28.9 64.3,37.3 71.2,41.8 		"/>
	</g>
	<path d="M5.2,63.9v17.3H3V65.9c0.5-0.6,1.1-1.1,1.7-1.6C4.9,64.2,5.1,64.1,5.2,63.9"/>
	<path d="M10.5,62.2v19.1H8.3V62.5c0.2,0,0.3-0.1,0.5-0.1c0.1,0,0.2,0,0.3-0.1c0.1,0,0.2,0,0.3,0C9.8,62.3,10.2,62.2,10.5,62.2"/>
	<path d="M15.8,63.2v18.1h-2.2V62.6c0.3,0.1,0.7,0.2,1,0.3C15,62.9,15.4,63.1,15.8,63.2"/>
	<path d="M21.1,65.6v15.7h-2.2V64.5c0.2,0.1,0.4,0.2,0.6,0.3l1.2,0.6C20.8,65.4,20.9,65.5,21.1,65.6"/>
	<path d="M26.4,67.9v13.4h-2.2V67c0,0,0.1,0,0.1,0.1c0.4,0.2,0.8,0.4,1.3,0.5l0.3,0.1c0.1,0,0.2,0.1,0.3,0.1
		C26.2,67.9,26.3,67.9,26.4,67.9"/>
	<path d="M31.6,69.1v12.2h-2.2V68.8c0,0,0,0,0,0C30.2,68.9,30.9,69,31.6,69.1"/>
	<path d="M36.9,69.2v12.1h-2.2v-12C35.4,69.3,36.2,69.2,36.9,69.2"/>
	<path d="M42.2,68.1v13.2H40V68.7c0.1,0,0.3-0.1,0.4-0.1C41,68.5,41.6,68.3,42.2,68.1"/>
	<path d="M47.5,65.7v15.5h-2.2V66.9c0.1,0,0.2-0.1,0.3-0.1C46.2,66.4,46.8,66.1,47.5,65.7"/>
	<path d="M52.8,62v19.3h-2.2V63.8C51.3,63.2,52,62.6,52.8,62"/>
	<path d="M58,56.8v24.5h-2.2V59.2C56.6,58.4,57.3,57.6,58,56.8"/>
	<path d="M63.3,50.1v31.2h-2.2V53.1c0.2-0.2,0.4-0.5,0.6-0.7C62.2,51.6,62.7,50.9,63.3,50.1L63.3,50.1"/>
	<path d="M68.6,43v38.2h-2.2V46l0.1-0.1l0.8-1.1c0.3-0.4,0.5-0.7,0.8-1.1L68.6,43"/>
	<g>
		<g>
			<path d="M97.9,38v4.2h-9.4c-4.7,0-6.7,2.3-6.7,7.9c0,5.5,2,7.9,6.7,7.9h9.4v4.2h-9.4c-7.1,0-11-4-11-12.1c0-8.2,3.9-12.1,11-12.1
				H97.9z"/>
		</g>
		<g>
			<path d="M115.6,43.3V47h-6.7c-1.7,0-2.4,0.8-2.4,2.4v12.9h-3.8V48.8c0-3.8,1.4-5.5,5.1-5.5H115.6z"/>
		</g>
		<g>
			<path d="M131.7,43.3c4.5,0,6.4,2.2,6.4,5.8c0,3.5-1.8,5.5-6.4,5.5h-9v1.4c0,1.5,0.8,2.6,2.9,2.6h11.6v3.7h-11.6
				c-4.7,0-6.6-2.7-6.6-6.3v-6.5c0-3.6,1.9-6.3,6.6-6.3H131.7z M122.7,51.6h8.9c2,0,2.8-0.9,2.8-2.3c0-1.4-0.8-2.4-2.7-2.4h-6.1
				c-2.1,0-2.9,1.2-2.9,2.6V51.6z"/>
		</g>
		<g>
			<path d="M162.3,35.1v19.1c0,5.5-2.4,8.1-7,8.1h-5.2c-5.1,0-8.2-3.1-8.2-9.5c0-6.4,3.2-9.5,8.2-9.5h8.4v-8.2H162.3z M158.5,54v-7
				h-8c-3.3,0-4.7,1.7-4.7,5.8s1.5,5.8,4.7,5.8h3.8C157.3,58.6,158.5,57.2,158.5,54z"/>
		</g>
		<g>
			<path d="M180.1,43.3c4.5,0,6.4,2.2,6.4,5.8c0,3.5-1.8,5.5-6.4,5.5h-9v1.4c0,1.5,0.8,2.6,2.9,2.6h11.6v3.7H174
				c-4.7,0-6.6-2.7-6.6-6.3v-6.5c0-3.6,1.9-6.3,6.6-6.3H180.1z M171.1,51.6h8.9c2,0,2.8-0.9,2.8-2.3c0-1.4-0.8-2.4-2.7-2.4H174
				c-2.1,0-2.9,1.2-2.9,2.6V51.6z"/>
		</g>
		<g>
			<path d="M194.6,43.3l6.3,6.9l6.5-6.9h4.7l-8.9,9.5l9,9.5h-4.9l-6.7-7.3l-6.8,7.3h-4.7l9.2-9.9l-8.6-9.1H194.6z"/>
		</g>
		<g>
			<path d="M227,43.3c5,0,8.2,3.1,8.2,9.5c0,6.4-3.2,9.5-8.2,9.5h-4c-5.1,0-8.2-3.1-8.2-9.5c0-6.4,3.2-9.5,8.2-9.5H227z M223.3,47
				c-3.3,0-4.7,1.7-4.7,5.8s1.4,5.8,4.7,5.8h3.3c3.3,0,4.7-1.7,4.7-5.8s-1.5-5.8-4.7-5.8H223.3z"/>
		</g>
		<g>
			<path d="M250.3,43.3c6.4,0,9.6,3.1,9.6,8.3v10.7H256V51.6c0-3-1.7-4.6-5.7-4.6H244c-0.3,0-0.5,0.2-0.5,0.5v14.8h-3.8v-16
				c0-2.2,0.8-2.9,2.7-2.9H250.3z"/>
		</g>
	</g>
	<g>
		<g>
			<path d="M78.5,80.1V76h-1v-0.9h2.9V76h-1v4.2H78.5z"/>
		</g>
		<g>
			<path d="M88.2,80.1v-2.1h-1v2.1h-1v-5.1h1v2.1h1v-2.1h1v5.1H88.2z"/>
		</g>
		<g>
			<path d="M95.3,80.1v-5.1h2.5V76h-1.4v1.2h1.2V78h-1.2v1.2h1.4v0.9H95.3z"/>
		</g>
		<g>
			<path d="M110.3,80.1v-5.1h2.4V76h-1.3v1.3h1.2v0.9h-1.2v2H110.3z"/>
		</g>
		<g>
			<path d="M121.5,75.1v2.8c0,0.7,0,1.2-0.1,1.5c-0.1,0.3-0.2,0.5-0.4,0.7c-0.2,0.1-0.6,0.2-1,0.2c-0.5,0-0.8-0.1-1-0.2
				s-0.3-0.4-0.4-0.7c-0.1-0.3-0.1-0.8-0.1-1.5v-2.8h1v3.2c0,0.4,0,0.6,0,0.7c0,0.1,0.1,0.2,0.1,0.3c0.1,0,0.2,0.1,0.4,0.1
				c0.2,0,0.3,0,0.3-0.1c0.1,0,0.1-0.1,0.1-0.3c0-0.1,0-0.4,0-0.7v-3.2H121.5z"/>
		</g>
		<g>
			<path d="M128.1,80.1V76h-1v-0.9h2.9V76h-1v4.2H128.1z"/>
		</g>
		<g>
			<path d="M138.8,75.1v2.8c0,0.7,0,1.2-0.1,1.5c-0.1,0.3-0.2,0.5-0.4,0.7c-0.2,0.1-0.6,0.2-1,0.2c-0.5,0-0.8-0.1-1-0.2
				c-0.2-0.1-0.3-0.4-0.4-0.7c-0.1-0.3-0.1-0.8-0.1-1.5v-2.8h1v3.2c0,0.4,0,0.6,0,0.7c0,0.1,0.1,0.2,0.1,0.3c0.1,0,0.2,0.1,0.4,0.1
				c0.2,0,0.3,0,0.3-0.1c0.1,0,0.1-0.1,0.1-0.3c0-0.1,0-0.4,0-0.7v-3.2H138.8z"/>
		</g>
		<g>
			<path d="M146.9,80.1l-0.5-1.8h-0.5v1.8h-1v-5.1h1.7c0.4,0,0.6,0.1,0.8,0.2c0.2,0.1,0.3,0.3,0.4,0.5c0.1,0.2,0.1,0.5,0.1,0.9
				c0,0.4,0,0.7-0.1,0.9c-0.1,0.2-0.2,0.4-0.4,0.5l0.6,2H146.9z M146.7,77.4c0.1,0,0.1-0.1,0.1-0.2c0-0.1,0-0.3,0-0.5
				c0-0.2,0-0.4,0-0.5c0-0.1-0.1-0.2-0.1-0.2c-0.1,0-0.2-0.1-0.3-0.1h-0.5v1.5h0.5C146.5,77.5,146.6,77.5,146.7,77.4z"/>
		</g>
		<g>
			<path d="M153.8,80.1v-5.1h2.5V76h-1.4v1.2h1.2V78h-1.2v1.2h1.4v0.9H153.8z"/>
		</g>
		<g>
			<path d="M169.2,80c-0.2-0.2-0.4-0.4-0.4-0.7c-0.1-0.3-0.1-0.9-0.1-1.7c0-0.8,0-1.3,0.1-1.7c0.1-0.3,0.2-0.6,0.4-0.7
				c0.2-0.2,0.6-0.2,1.1-0.2c0.5,0,0.9,0.1,1.1,0.2c0.2,0.1,0.4,0.4,0.4,0.7c0.1,0.3,0.1,0.9,0.1,1.7c0,0.8,0,1.3-0.1,1.7
				c-0.1,0.3-0.2,0.6-0.4,0.7s-0.6,0.2-1.1,0.2C169.8,80.2,169.4,80.1,169.2,80z M170.7,79.2c0.1-0.1,0.1-0.2,0.1-0.4
				c0-0.2,0-0.6,0-1.2c0-0.6,0-1,0-1.2c0-0.2-0.1-0.3-0.1-0.4c-0.1-0.1-0.2-0.1-0.4-0.1c-0.2,0-0.3,0-0.4,0.1
				c-0.1,0.1-0.1,0.2-0.1,0.4c0,0.2,0,0.6,0,1.2c0,0.6,0,1,0,1.2c0,0.2,0.1,0.3,0.1,0.4c0.1,0.1,0.2,0.1,0.4,0.1
				C170.5,79.3,170.6,79.3,170.7,79.2z"/>
		</g>
		<g>
			<path d="M177.8,80.1v-5.1h2.4V76h-1.3v1.3h1.2v0.9h-1.2v2H177.8z"/>
		</g>
		<g>
			<path d="M194,78.1v-0.9h1.4V80c-0.2,0-0.4,0.1-0.6,0.1c-0.2,0-0.5,0-0.7,0c-0.5,0-0.8-0.1-1-0.2c-0.2-0.1-0.4-0.4-0.5-0.8
				s-0.1-0.9-0.1-1.6c0-0.7,0-1.3,0.1-1.6c0.1-0.4,0.3-0.6,0.5-0.8c0.2-0.1,0.6-0.2,1.1-0.2c0.2,0,0.4,0,0.6,0
				c0.2,0,0.4,0.1,0.6,0.1V76c-0.4-0.1-0.7-0.1-0.9-0.1c-0.3,0-0.6,0-0.7,0.1c-0.1,0.1-0.2,0.2-0.3,0.4c0,0.2-0.1,0.6-0.1,1.2
				c0,0.5,0,0.9,0,1.2c0,0.2,0.1,0.4,0.2,0.5c0.1,0.1,0.2,0.1,0.4,0.1c0,0,0.2,0,0.4,0v-1.3H194z"/>
		</g>
		<g>
			<path d="M203.7,80.1l-0.2-1h-1.1l-0.2,1h-1l1-5.1h1.5l1,5.1H203.7z M202.9,76L202.9,76l-0.4,2.2h0.8L202.9,76z"/>
		</g>
		<g>
			<path d="M213.9,80.1v-3.7h0l-0.7,3.7h-0.9l-0.7-3.7h-0.1v3.7h-1v-5.1h1.5l0.7,3.5h0.1l0.7-3.5h1.5v5.1H213.9z"/>
		</g>
		<g>
			<path d="M220.9,80.1v-5.1h1v5.1H220.9z"/>
		</g>
		<g>
			<path d="M230.2,80.1l-1.2-2.8h0v2.8h-1v-5.1h1l1.1,2.6h0v-2.6h1v5.1H230.2z"/>
		</g>
		<g>
			<path d="M238.6,78.1v-0.9h1.4V80c-0.2,0-0.4,0.1-0.6,0.1c-0.2,0-0.5,0-0.7,0c-0.5,0-0.8-0.1-1-0.2c-0.2-0.1-0.4-0.4-0.5-0.8
				c-0.1-0.4-0.1-0.9-0.1-1.6c0-0.7,0-1.3,0.1-1.6c0.1-0.4,0.3-0.6,0.5-0.8c0.2-0.1,0.6-0.2,1.1-0.2c0.2,0,0.4,0,0.6,0
				c0.2,0,0.4,0.1,0.6,0.1V76c-0.4-0.1-0.7-0.1-0.9-0.1c-0.3,0-0.6,0-0.7,0.1s-0.2,0.2-0.3,0.4c0,0.2-0.1,0.6-0.1,1.2
				c0,0.5,0,0.9,0,1.2c0,0.2,0.1,0.4,0.2,0.5c0.1,0.1,0.2,0.1,0.4,0.1c0,0,0.2,0,0.4,0v-1.3H238.6z"/>
		</g>
	</g>
</g>
</svg>
